# xmcd
#
# Track frame offsets: 
#        200
#        20842
#        37425
#        54740
#        76242
#        92670
#        110390
#        126440
#        141180
#        161302
#
# Disc length: 2515 seconds
#
# Revision: 0
# Processed by: cddbd v1.4PL0 Copyright (c) Steve Scherf et al.
# Submitted via: ExactAudioCopy v0.90b3
#
DISCID=8909d10a
DTITLE=Kevin Sharp - You Can Count On Me
DYEAR=1900
DGENRE=Country
TTITLE0=You Can Count On Me
TTITLE1=Candle In The Window
TTITLE2=I'll Still Be Good To You
TTITLE3=She's Crying
TTITLE4=The Note
TTITLE5=I Won't Buy
TTITLE6=Good Old Days
TTITLE7=I Give My Heart To You
TTITLE8=Mystery
TTITLE9=Forbidden Love
EXTD=
EXTT0=
EXTT1=
EXTT2=
EXTT3=
EXTT4=
EXTT5=
EXTT6=
EXTT7=
EXTT8=
EXTT9=
PLAYORDER=
